<mxfile host="app.diagrams.net" modified="2023-05-29T12:00:33.784Z" agent="Mozilla/5.0 (Windows NT 10.0; Win64; x64) AppleWebKit/537.36 (KHTML, like Gecko) Chrome/113.0.0.0 Safari/537.36" etag="8OM3KuIxiyoKo93tSKWV" version="21.3.5" type="github" pages="2">
  <diagram name="factorial" id="FCH0V2HY3VDnffZKWAp5">
    <mxGraphModel dx="980" dy="722" grid="1" gridSize="10" guides="1" tooltips="1" connect="1" arrows="1" fold="1" page="1" pageScale="1" pageWidth="1169" pageHeight="827" math="0" shadow="0">
      <root>
        <mxCell id="0" />
        <mxCell id="1" parent="0" />
        <mxCell id="a1BE07RjpAKSt0YaVKPH-3" value="" style="edgeStyle=orthogonalEdgeStyle;rounded=0;orthogonalLoop=1;jettySize=auto;html=1;" edge="1" parent="1" source="a1BE07RjpAKSt0YaVKPH-1" target="a1BE07RjpAKSt0YaVKPH-2">
          <mxGeometry relative="1" as="geometry" />
        </mxCell>
        <mxCell id="a1BE07RjpAKSt0YaVKPH-1" value="Start" style="ellipse;whiteSpace=wrap;html=1;strokeColor=#FF3F0F;" vertex="1" parent="1">
          <mxGeometry x="320" y="70" width="120" height="80" as="geometry" />
        </mxCell>
        <mxCell id="a1BE07RjpAKSt0YaVKPH-5" value="" style="edgeStyle=orthogonalEdgeStyle;rounded=0;orthogonalLoop=1;jettySize=auto;html=1;" edge="1" parent="1" source="a1BE07RjpAKSt0YaVKPH-2" target="a1BE07RjpAKSt0YaVKPH-6">
          <mxGeometry relative="1" as="geometry">
            <mxPoint x="380" y="320" as="targetPoint" />
          </mxGeometry>
        </mxCell>
        <mxCell id="a1BE07RjpAKSt0YaVKPH-2" value="n" style="shape=parallelogram;perimeter=parallelogramPerimeter;whiteSpace=wrap;html=1;fixedSize=1;" vertex="1" parent="1">
          <mxGeometry x="320" y="210" width="120" height="60" as="geometry" />
        </mxCell>
        <mxCell id="a1BE07RjpAKSt0YaVKPH-9" value="yes" style="edgeStyle=orthogonalEdgeStyle;rounded=0;orthogonalLoop=1;jettySize=auto;html=1;" edge="1" parent="1" source="a1BE07RjpAKSt0YaVKPH-4" target="a1BE07RjpAKSt0YaVKPH-8">
          <mxGeometry relative="1" as="geometry" />
        </mxCell>
        <mxCell id="a1BE07RjpAKSt0YaVKPH-13" value="no" style="edgeStyle=orthogonalEdgeStyle;rounded=0;orthogonalLoop=1;jettySize=auto;html=1;" edge="1" parent="1" source="a1BE07RjpAKSt0YaVKPH-4" target="a1BE07RjpAKSt0YaVKPH-12">
          <mxGeometry relative="1" as="geometry" />
        </mxCell>
        <mxCell id="a1BE07RjpAKSt0YaVKPH-4" value="n &amp;lt; 1?" style="rhombus;whiteSpace=wrap;html=1;" vertex="1" parent="1">
          <mxGeometry x="340" y="440" width="80" height="80" as="geometry" />
        </mxCell>
        <mxCell id="a1BE07RjpAKSt0YaVKPH-7" value="" style="edgeStyle=orthogonalEdgeStyle;rounded=0;orthogonalLoop=1;jettySize=auto;html=1;" edge="1" parent="1" source="a1BE07RjpAKSt0YaVKPH-6" target="a1BE07RjpAKSt0YaVKPH-4">
          <mxGeometry relative="1" as="geometry" />
        </mxCell>
        <mxCell id="a1BE07RjpAKSt0YaVKPH-6" value="factorial = 1" style="rounded=0;whiteSpace=wrap;html=1;" vertex="1" parent="1">
          <mxGeometry x="320" y="330" width="120" height="60" as="geometry" />
        </mxCell>
        <mxCell id="a1BE07RjpAKSt0YaVKPH-11" value="" style="edgeStyle=orthogonalEdgeStyle;rounded=0;orthogonalLoop=1;jettySize=auto;html=1;" edge="1" parent="1" source="a1BE07RjpAKSt0YaVKPH-8" target="a1BE07RjpAKSt0YaVKPH-10">
          <mxGeometry relative="1" as="geometry" />
        </mxCell>
        <mxCell id="a1BE07RjpAKSt0YaVKPH-8" value="factorial" style="shape=document;whiteSpace=wrap;html=1;boundedLbl=1;" vertex="1" parent="1">
          <mxGeometry x="500" y="440" width="120" height="80" as="geometry" />
        </mxCell>
        <mxCell id="a1BE07RjpAKSt0YaVKPH-10" value="finish" style="ellipse;whiteSpace=wrap;html=1;fillColor=#dae8fc;strokeColor=#6c8ebf;" vertex="1" parent="1">
          <mxGeometry x="690" y="440" width="120" height="80" as="geometry" />
        </mxCell>
        <mxCell id="a1BE07RjpAKSt0YaVKPH-12" value="factorial *= n - 1" style="whiteSpace=wrap;html=1;" vertex="1" parent="1">
          <mxGeometry x="320" y="610" width="120" height="60" as="geometry" />
        </mxCell>
        <mxCell id="a1BE07RjpAKSt0YaVKPH-14" value="" style="endArrow=classic;html=1;rounded=1;exitX=0.5;exitY=1;exitDx=0;exitDy=0;" edge="1" parent="1" source="a1BE07RjpAKSt0YaVKPH-12" target="a1BE07RjpAKSt0YaVKPH-15">
          <mxGeometry width="50" height="50" relative="1" as="geometry">
            <mxPoint x="440" y="470" as="sourcePoint" />
            <mxPoint x="220" y="600" as="targetPoint" />
            <Array as="points">
              <mxPoint x="380" y="750" />
              <mxPoint x="230" y="750" />
            </Array>
          </mxGeometry>
        </mxCell>
        <mxCell id="a1BE07RjpAKSt0YaVKPH-16" value="" style="edgeStyle=orthogonalEdgeStyle;rounded=0;orthogonalLoop=1;jettySize=auto;html=1;" edge="1" parent="1" source="a1BE07RjpAKSt0YaVKPH-15" target="a1BE07RjpAKSt0YaVKPH-4">
          <mxGeometry relative="1" as="geometry" />
        </mxCell>
        <mxCell id="a1BE07RjpAKSt0YaVKPH-15" value="n -= 1" style="rounded=0;whiteSpace=wrap;html=1;" vertex="1" parent="1">
          <mxGeometry x="170" y="450" width="120" height="60" as="geometry" />
        </mxCell>
      </root>
    </mxGraphModel>
  </diagram>
  <diagram id="ubREbcyVAZxDPn54lxMt" name="average_of_nums">
    <mxGraphModel dx="980" dy="722" grid="1" gridSize="10" guides="1" tooltips="1" connect="1" arrows="1" fold="1" page="1" pageScale="1" pageWidth="1169" pageHeight="827" math="0" shadow="0">
      <root>
        <mxCell id="0" />
        <mxCell id="1" parent="0" />
        <mxCell id="Sby_E_7v-V65tDqz8t9t-2" value="" style="edgeStyle=orthogonalEdgeStyle;rounded=0;orthogonalLoop=1;jettySize=auto;html=1;" edge="1" parent="1" source="uxYQTYBTYUqLMDSK9uGl-1" target="Sby_E_7v-V65tDqz8t9t-1">
          <mxGeometry relative="1" as="geometry" />
        </mxCell>
        <mxCell id="uxYQTYBTYUqLMDSK9uGl-1" value="Start" style="ellipse;whiteSpace=wrap;html=1;strokeColor=#FF1414;" vertex="1" parent="1">
          <mxGeometry x="160" y="220" width="120" height="80" as="geometry" />
        </mxCell>
        <mxCell id="Sby_E_7v-V65tDqz8t9t-4" value="" style="edgeStyle=orthogonalEdgeStyle;rounded=0;orthogonalLoop=1;jettySize=auto;html=1;" edge="1" parent="1" source="Sby_E_7v-V65tDqz8t9t-1" target="Sby_E_7v-V65tDqz8t9t-3">
          <mxGeometry relative="1" as="geometry" />
        </mxCell>
        <mxCell id="Sby_E_7v-V65tDqz8t9t-1" value="numbers: list" style="shape=parallelogram;perimeter=parallelogramPerimeter;whiteSpace=wrap;html=1;fixedSize=1;" vertex="1" parent="1">
          <mxGeometry x="160" y="360" width="120" height="60" as="geometry" />
        </mxCell>
        <mxCell id="Sby_E_7v-V65tDqz8t9t-6" value="" style="edgeStyle=orthogonalEdgeStyle;rounded=0;orthogonalLoop=1;jettySize=auto;html=1;" edge="1" parent="1" source="Sby_E_7v-V65tDqz8t9t-3" target="Sby_E_7v-V65tDqz8t9t-5">
          <mxGeometry relative="1" as="geometry" />
        </mxCell>
        <mxCell id="Sby_E_7v-V65tDqz8t9t-3" value="sum = numbers[0]&lt;br&gt;count = 1" style="rounded=0;whiteSpace=wrap;html=1;" vertex="1" parent="1">
          <mxGeometry x="160" y="470" width="120" height="60" as="geometry" />
        </mxCell>
        <mxCell id="Sby_E_7v-V65tDqz8t9t-8" value="yes" style="edgeStyle=orthogonalEdgeStyle;rounded=0;orthogonalLoop=1;jettySize=auto;html=1;" edge="1" parent="1" source="Sby_E_7v-V65tDqz8t9t-5" target="Sby_E_7v-V65tDqz8t9t-7">
          <mxGeometry relative="1" as="geometry" />
        </mxCell>
        <mxCell id="Sby_E_7v-V65tDqz8t9t-14" value="no" style="edgeStyle=orthogonalEdgeStyle;rounded=0;orthogonalLoop=1;jettySize=auto;html=1;" edge="1" parent="1" source="Sby_E_7v-V65tDqz8t9t-5" target="Sby_E_7v-V65tDqz8t9t-13">
          <mxGeometry relative="1" as="geometry" />
        </mxCell>
        <mxCell id="Sby_E_7v-V65tDqz8t9t-5" value="has list ended?" style="rhombus;whiteSpace=wrap;html=1;rounded=0;" vertex="1" parent="1">
          <mxGeometry x="380" y="460" width="80" height="80" as="geometry" />
        </mxCell>
        <mxCell id="Sby_E_7v-V65tDqz8t9t-10" value="" style="edgeStyle=orthogonalEdgeStyle;rounded=0;orthogonalLoop=1;jettySize=auto;html=1;" edge="1" parent="1" source="Sby_E_7v-V65tDqz8t9t-7" target="Sby_E_7v-V65tDqz8t9t-9">
          <mxGeometry relative="1" as="geometry" />
        </mxCell>
        <mxCell id="Sby_E_7v-V65tDqz8t9t-7" value="answer = sum / count" style="whiteSpace=wrap;html=1;rounded=0;" vertex="1" parent="1">
          <mxGeometry x="360" y="360" width="120" height="60" as="geometry" />
        </mxCell>
        <mxCell id="Sby_E_7v-V65tDqz8t9t-12" value="" style="edgeStyle=orthogonalEdgeStyle;rounded=0;orthogonalLoop=1;jettySize=auto;html=1;" edge="1" parent="1" source="Sby_E_7v-V65tDqz8t9t-9" target="Sby_E_7v-V65tDqz8t9t-11">
          <mxGeometry relative="1" as="geometry" />
        </mxCell>
        <mxCell id="Sby_E_7v-V65tDqz8t9t-9" value="answer" style="shape=document;whiteSpace=wrap;html=1;boundedLbl=1;" vertex="1" parent="1">
          <mxGeometry x="360" y="230" width="120" height="80" as="geometry" />
        </mxCell>
        <mxCell id="Sby_E_7v-V65tDqz8t9t-11" value="finish" style="ellipse;whiteSpace=wrap;html=1;fillColor=#dae8fc;strokeColor=#6c8ebf;" vertex="1" parent="1">
          <mxGeometry x="360" y="120" width="120" height="80" as="geometry" />
        </mxCell>
        <mxCell id="Sby_E_7v-V65tDqz8t9t-17" style="edgeStyle=orthogonalEdgeStyle;rounded=0;orthogonalLoop=1;jettySize=auto;html=1;entryX=1;entryY=0.5;entryDx=0;entryDy=0;" edge="1" parent="1" source="Sby_E_7v-V65tDqz8t9t-13" target="Sby_E_7v-V65tDqz8t9t-16">
          <mxGeometry relative="1" as="geometry">
            <Array as="points">
              <mxPoint x="580" y="630" />
            </Array>
          </mxGeometry>
        </mxCell>
        <mxCell id="Sby_E_7v-V65tDqz8t9t-13" value="sum += numbers[x]" style="whiteSpace=wrap;html=1;rounded=0;" vertex="1" parent="1">
          <mxGeometry x="520" y="470" width="120" height="60" as="geometry" />
        </mxCell>
        <mxCell id="Sby_E_7v-V65tDqz8t9t-18" value="" style="edgeStyle=orthogonalEdgeStyle;rounded=0;orthogonalLoop=1;jettySize=auto;html=1;" edge="1" parent="1" source="Sby_E_7v-V65tDqz8t9t-16" target="Sby_E_7v-V65tDqz8t9t-5">
          <mxGeometry relative="1" as="geometry" />
        </mxCell>
        <mxCell id="Sby_E_7v-V65tDqz8t9t-16" value="count += 1" style="rounded=0;whiteSpace=wrap;html=1;" vertex="1" parent="1">
          <mxGeometry x="360" y="600" width="120" height="60" as="geometry" />
        </mxCell>
      </root>
    </mxGraphModel>
  </diagram>
</mxfile>
